<svg width="17" height="17" viewBox="0 0 17 17" fill="none" xmlns="http://www.w3.org/2000/svg">
<path d="M14.2092 3.14301C13.861 2.79462 13.4475 2.51824 12.9925 2.32968C12.5374 2.14112 12.0496 2.04407 11.557 2.04407C11.0644 2.04407 10.5767 2.14112 10.1216 2.32968C9.66652 2.51824 9.25306 2.79462 8.90482 3.14301L8.18211 3.86572L7.4594 3.14301C6.75599 2.4396 5.80196 2.04443 4.80719 2.04443C3.81242 2.04443 2.85839 2.4396 2.15498 3.14301C1.45157 3.84642 1.0564 4.80045 1.0564 5.79522C1.0564 6.79 1.45157 7.74402 2.15498 8.44743L2.87769 9.17014L8.18211 14.4746L13.4865 9.17014L14.2092 8.44743C14.5576 8.0992 14.834 7.68573 15.0226 7.23066C15.2111 6.77558 15.3082 6.28782 15.3082 5.79522C15.3082 5.30263 15.2111 4.81486 15.0226 4.35979C14.834 3.90471 14.5576 3.49125 14.2092 3.14301V3.14301Z" fill="#DE2143" stroke="#FF0000" stroke-opacity="0.7" stroke-width="1.3636" stroke-linecap="round" stroke-linejoin="round"/>
</svg>
