<svg width="70" height="70" viewBox="0 0 70 70" fill="none" xmlns="http://www.w3.org/2000/svg">
<circle cx="34.5516" cy="34.5516" r="28.7931" fill="#F7931A"/>
<path fill-rule="evenodd" clip-rule="evenodd" d="M39.5021 34.4716C41.2454 34.0489 42.5642 32.8638 42.9279 30.4249C43.4296 27.0937 40.9767 25.3178 37.6154 24.1436L38.7316 19.629L36.0673 18.9606L34.9798 23.3559C34.281 23.1789 33.5625 23.0127 32.8476 22.8501L33.9424 18.424L31.2798 17.7556L30.1636 22.2684C29.5831 22.1365 29.0133 22.0046 28.4615 21.8655L28.465 21.8529L24.792 20.9279L24.0663 23.8618C24.0663 23.8618 26.0426 24.3188 25.9996 24.3459C27.08 24.6187 27.2717 25.3522 27.2359 25.9357L25.9638 31.0789C26.0583 31.1027 26.1511 31.1328 26.2415 31.1692L25.9584 31.0988L24.1774 38.3033C24.043 38.6411 23.7062 39.1488 22.9501 38.9627C22.977 39.0006 21.015 38.4749 21.015 38.4749L19.6748 41.6219L23.1418 42.4945C23.5325 42.593 23.918 42.6941 24.2998 42.7943C24.5483 42.8595 24.7952 42.9243 25.041 42.9877L23.9122 47.5546L26.5712 48.2231L27.6892 43.7067C28.3943 43.8994 29.1015 44.0843 29.8106 44.2613L28.698 48.7596L31.3605 49.428L32.4893 44.8719C37.0331 45.73 40.4553 45.3543 41.9173 41.1143C43.0945 37.6999 41.8869 35.7416 39.5021 34.4716ZM51.5677 45.197L52.5442 41.2533L56.4555 42.2379L57.1059 39.6076L53.1946 38.6248L54.1693 34.6811L51.5623 34.0253L50.5858 37.969L46.6745 36.9863L46.0241 39.6148L49.9354 40.5976L48.9607 44.5431L51.5677 45.197ZM36.7879 39.25C37.5787 36.0508 32.9779 35.0122 30.7278 34.5042L30.7276 34.5041C30.4747 34.447 30.2514 34.3966 30.0689 34.3506L28.5764 40.3971C28.7259 40.4345 28.9013 40.4813 29.0977 40.5336L29.0977 40.5336C31.2722 41.1131 36.0191 42.3781 36.7915 39.2482L36.7879 39.25ZM32.6602 26.2211C34.5361 26.6384 38.3788 27.4932 37.6605 30.4051C36.955 33.2534 32.9947 32.1838 31.1858 31.6953C31.0237 31.6515 30.8788 31.6124 30.7551 31.5812L32.1115 26.0947C32.2634 26.1328 32.4494 26.1742 32.6602 26.2211Z" fill="white"/>
</svg>
